<?xml version="1.0" encoding="utf-8"?>
<!-- Generator: Adobe Illustrator 16.0.0, SVG Export Plug-In . SVG Version: 6.00 Build 0)  -->
<!DOCTYPE svg PUBLIC "-//W3C//DTD SVG 1.1//EN" "http://www.w3.org/Graphics/SVG/1.1/DTD/svg11.dtd">
<svg version="1.1" id="Capa_1" xmlns="http://www.w3.org/2000/svg" xmlns:xlink="http://www.w3.org/1999/xlink" x="0px" y="0px"
	 width="1478px" height="960px" viewBox="0 0 1478 960" enable-background="new 0 0 1478 960" xml:space="preserve">
<g>
	<path d="M884.6,244.57l111.4-74.05V65.34L741.37,241.351L476,56.75v104.09l116.9,75.141c31.14,19.33,59.1,37.569,90.1,54.75v2.12
		c-31,18.27-60.03,35.439-90.1,55.84l-116.9,76.2v107l117.21,75.141C624.35,626.33,652,644.57,683,661.75v2.15
		c-31,18.24-60.03,35.42-90.1,55.811L476,795.91v107.34l268.59-182.48L996,897.881V795.91l-110.36-72.98
		C857.72,705.75,831,688.6,800,671.43v-3.219c28-17.17,55.59-33.291,84.6-52.59l111.4-74.08v-116.65l-110.36-72.98
		C857.72,334.73,831,317.55,800,300.38v-3.22C828,279.98,855.59,263.9,884.6,244.57z M931.822,481.17l-189.73,131.201
		L552.692,480.61l192.63-130.86L931.822,481.17z"/>
</g>
<polygon fill="#99CA3B" points="411,62 411,161 178,394 178,580 411,808 411,905 353,951 29,645 29,325 352,9 "/>
<polygon fill="#99CA3B" points="1070,62 1070,161 1303,394 1303,580 1070,808 1070,905 1128,951 1452,645 1452,325 1129,9 "/>
</svg>
